<svg viewBox="104.80000000000007 52.307692307692264 812.2000000000002 666.9230769230768" fill="none" xmlns="http://www.w3.org/2000/svg" xmlns:xlink="http://www.w3.org/1999/xlink" xmlns:blush="http://design.blush" overflow="visible" width="812.2000000000002px" height="666.9230769230768px"><g id="Master/Scene/3 Characters" blush:has-customizable-colors="true" blush:viewBox="0 -1.0493827160493652 1053.2399999999998 682.0987654320987" blush:i="0"><g id="Background" blush:component="Background" blush:defaultValue="Wireframe" blush:width="1053" blush:height="680" blush:i="0.0" blush:value="Wireframe" transform="scale(1 1)" blush:viewBox="115.82999999999993 63.68421052631584 795.0150000000001 552.6315789473684"><g id="Background/Wireframe" blush:viewBox="115.82999999999993 63.68421052631584 795.0150000000001 552.6315789473684" blush:i="0.0.0"><path id="Twisted Leaf" fill-rule="evenodd" clip-rule="evenodd" d="M807.581 225.208C807.098 224.857 805.952 224.732 805.419 224.627C803.203 224.19 800.919 224 798.66 224C791.692 224.01 784.612 224.694 777.76 225.878C773.41 226.629 768.151 229.157 763.823 227.784C756.284 225.392 748.665 225.509 741.512 228.924C734.973 232.047 730.008 237.979 727.111 244.387C726.674 245.355 724.901 248.915 724.399 251.316C724.184 251.806 723.978 252.301 723.792 252.802C723.265 254.226 722.792 255.675 722.352 257.127C722.164 257.746 721.692 259.114 722.253 259.378C721.356 261.032 720.562 262.736 719.9 264.495C717.976 269.613 715.871 275.226 715.195 280.649C714.945 282.657 714.935 284.677 715.168 286.69C715.283 287.684 715.235 289.684 715.91 290.44C717.341 292.045 718.076 289.798 717.914 288.728C716.682 280.574 719.062 272.916 721.881 265.251C723.705 260.295 726.701 255.76 730.057 251.653C732.773 248.329 735.687 245.712 739.41 243.508C743.964 240.813 748.832 238.634 753.655 236.448C756.827 235.01 760.003 233.611 763.264 232.372C763.989 232.096 765.13 231.389 765.934 231.387C767.634 231.381 770.043 232.635 771.685 233.101C777.087 234.637 782.557 236.602 788.14 237.386C791.72 237.89 795.075 237.323 798.424 236.13C798.766 236.009 799.339 235.696 800.042 235.249C802.528 234.292 804.88 233.089 806.928 231.353C808.108 230.353 809.178 229.06 810.155 227.877C810.447 227.524 810.576 227.118 810.58 226.733C810.802 226.617 810.948 226.482 810.982 226.324C811.225 225.16 809.004 225.139 807.581 225.208" fill="#89C5CC" blush:i="0.0.0.0"/><path id="Fill 10" fill-rule="evenodd" clip-rule="evenodd" d="M798.164 257.594C795.063 256.923 791.639 256.974 788.481 257.03C771.541 257.258 754.907 265.205 744.081 277.903C734.864 288.714 732.33 302.154 730.509 315.74C730.329 317.089 730.252 318.429 730.15 319.781C730.128 320.071 730.095 320.33 730.06 320.574C729.344 321.208 728.969 321.948 729.392 322.76C727.815 326.181 726.481 329.688 725.336 333.305C721.966 343.953 718.538 354.803 720.649 366C721.143 359.838 722.181 353.538 723.422 347.477C723.493 347.129 723.57 346.784 723.65 346.44C723.659 346.404 723.666 346.368 723.675 346.332C724.114 344.476 724.685 342.676 725.379 340.904C725.387 340.884 725.394 340.865 725.401 340.846C725.493 340.613 725.59 340.381 725.687 340.149C725.885 339.669 726.09 339.189 726.306 338.713C726.38 338.55 726.45 338.386 726.518 338.221C727.529 335.765 727.956 332.999 728.862 330.458C729.078 329.88 729.305 329.305 729.542 328.732C729.556 328.699 729.57 328.665 729.585 328.631C730.226 327.091 730.935 325.569 731.684 324.063C732.092 323.76 732.309 323.007 732.66 322.323C732.733 322.189 733.301 321.29 733.47 320.772C733.911 319.926 734.351 319.08 734.796 318.236C734.782 318.241 734.769 318.245 734.756 318.25C735.2 317.439 735.646 316.632 736.089 315.828C736.186 315.651 736.285 315.474 736.383 315.297C736.542 315.015 736.701 314.733 736.859 314.452C738.343 311.821 739.916 309.242 741.55 306.696C742.133 305.787 743.527 304.484 743.794 303.463C743.803 303.425 743.806 303.39 743.812 303.354C747.357 298.419 751.439 293.868 756.333 290.262C755.742 290.896 754.484 293.047 754.151 293.472C753.134 294.776 752.029 295.99 750.92 297.218C748.935 299.419 746.996 301.689 745.273 304.09C742.123 308.48 739.405 313.101 736.836 317.814C736.811 317.842 736.785 317.868 736.762 317.897C735.47 319.474 734.658 321.858 733.728 323.662C737.407 321.974 741.474 320.874 745.25 319.375C749.014 317.88 752.677 316.216 756.213 314.262C760.912 311.664 765.787 308.732 770.227 305.413C775.316 302.285 779.592 297.98 783.366 293.463C787.832 288.117 791.925 282.726 794.456 276.235C795.699 273.046 796.677 269.721 797.257 266.356C797.282 266.21 797.315 266.051 797.35 265.885C797.943 264.723 798.474 263.535 798.919 262.32C799.626 260.392 801.295 258.272 798.164 257.594" fill="#56919C" blush:i="0.0.0.1"/><path id="Fill 1" fill-rule="evenodd" clip-rule="evenodd" d="M826.291 364.744C824.486 360.648 820.661 357.48 816.904 355.133C802.232 345.965 785.03 342.805 768.034 343.492C758.721 343.869 749.335 345.894 740.488 348.581C735.38 350.132 730.421 352.163 725.978 355.093C722.98 357.07 720.307 359.412 717.857 362.02C714.871 365.198 711.988 368.543 709.425 372.069C708.416 373.458 702.759 380.638 705.086 382.273C704.953 382.454 704.837 382.633 704.75 382.805C694.399 387.735 685.164 395.324 676.477 402.56C668.917 408.858 661.6 415.4 654.968 422.657C646.237 432.213 638.085 442.356 630.623 452.92C629.019 455.19 627.456 457.487 625.905 459.795C624.582 461.763 623.258 463.731 621.937 465.7C620.455 467.907 618.439 470.253 617.397 472.715C616.49 474.86 618.358 475.617 619.645 473.723C621.199 471.435 622.652 469.078 624.22 466.796C626.301 463.768 628.386 460.743 630.483 457.726C645.048 436.769 662.326 417.949 682.408 402.105C690.535 395.693 698.819 389.992 707.96 385.075C715.997 380.752 724.678 377.129 733.183 374.017C741.448 370.994 749.81 368.22 758.546 366.741C765.636 365.542 772.855 365.148 780.061 365.088C789.214 365.011 798.291 365.027 807.383 366.26C812.109 366.9 816.796 367.759 821.509 368.485C822.357 368.615 823.248 368.785 824.099 368.854C826.937 369.085 827.274 366.974 826.291 364.744" fill="#C1DEE2" blush:i="0.0.0.2"/><path id="Fill 16" fill-rule="evenodd" clip-rule="evenodd" d="M265.211 281.695C263.843 282.768 262.501 283.864 261.192 285.004C260.194 285.873 258.429 286.913 258.071 288.23C257.698 289.598 258.874 290.879 259.802 291.706C264.712 296.082 270.241 299.04 277.045 299.531C287.521 300.289 296.639 297.698 305.728 292.6C312.113 289.018 316.342 283.721 317.266 276.568C324.87 279.629 332.224 283.847 338.474 289.025C341.557 291.58 344.213 294.411 346.67 297.548C348.243 299.558 349.765 301.6 351.178 303.721C351.792 304.642 352.416 306.276 353.429 306.807C354.619 307.43 356.057 306.453 355.998 305.172C355.949 304.106 354.76 302.869 354.204 301.997C353.281 300.549 352.344 299.111 351.357 297.703C349.76 295.424 348.109 293.176 346.309 291.043C342.263 286.251 337.116 282.292 331.779 278.915C321.542 272.438 310.307 268.358 297.851 268.012C290.192 267.8 283.749 270.334 277.199 274.119C273.121 276.475 268.911 278.792 265.211 281.695" fill="#C7D1D9" blush:i="0.0.0.3"/><path id="Leaf" fill-rule="evenodd" clip-rule="evenodd" d="M347.536 282.007C339.574 273.792 331.585 265.68 322.69 258.446C317.448 254.183 311.923 250.307 306.513 246.265C307.137 246.813 307.749 247.377 308.347 247.955C306.658 246.806 304.447 246.157 302.657 245.093C300.659 243.907 298.75 242.551 296.878 241.183C293.222 238.514 289.622 235.795 285.865 233.266C281.678 230.448 277.34 227.844 273.082 225.132C269.469 222.83 265.812 220.311 261.946 218.43C259.839 217.404 257.727 216.189 255.612 215.119C254.904 214.761 247.72 210.216 247.738 210.203C248.135 209.903 251.75 211.605 252.309 211.834C253.942 212.502 255.504 213.302 257.074 214.098C256.213 212.395 255.53 210.606 255.159 208.722C255.044 208.141 254.125 203.908 254.596 203.553C254.83 203.376 257.122 210.948 257.24 211.676C257.335 212.268 257.321 213.119 257.514 213.679C257.826 214.584 257.811 214.311 258.498 214.82C259.757 215.754 261.429 216.338 262.792 217.118C263.527 217.529 265.803 219.16 267.174 219.625C271.322 221.643 275.526 224.748 279.467 227.327C278.433 225.379 277.645 223.342 277.071 221.208C276.935 220.702 275.462 216.156 275.819 215.886C276.221 215.583 279.028 222.525 279.194 223.182C279.503 224.403 279.567 225.761 279.954 226.949C280.378 228.253 281.703 228.715 282.896 229.475C287.288 232.271 291.529 235.241 295.699 238.348C300.249 230.24 295.003 220.449 290.581 213.645C287.394 208.742 283.103 204.538 278.572 200.869C272.526 195.971 265.608 192.058 258.699 188.479C250.648 184.308 241.947 181.724 232.901 180.531C228.169 179.906 223.329 179.924 218.55 180.124C216.215 180.222 213.974 180.531 211.737 181.294C210.728 181.639 209.754 182.072 208.804 182.558C208.083 182.927 206.337 183.317 205.922 183.867C202.507 188.321 200.76 192.759 201.027 198.355C201.279 203.653 202.949 208.954 205.215 213.68C207.739 218.942 210.985 223.718 215.23 227.726C218.469 230.785 222.091 233.446 225.688 236.073C238.482 245.416 254.704 253.541 271.275 251.454C276.639 250.778 281.741 248.899 286.509 246.345C287.632 245.743 288.749 245.134 289.809 244.423C290.524 243.944 292.436 241.786 293.155 241.707C294.14 241.6 296.264 243.609 297.189 244.22C304.217 248.869 311.062 253.769 317.763 258.868C324.892 264.293 331.672 270.087 338.252 276.153C341.05 278.734 343.831 281.32 346.549 283.987C347.181 284.607 348.728 286.892 349.875 286.995C350.601 287.061 351.09 286.44 350.986 285.768C350.806 284.598 348.351 282.849 347.536 282.007" fill="#C1DEE2" blush:i="0.0.0.4"/><g id="Mobile3" clip-path="url(#clip0_410_5451ea72e470-6635-4bc5-9ee3-de01a9abf139)" blush:i="0.0.0.5"><g id="Group" blush:i="0.0.0.5.0"><path id="Fill 16_2" fill-rule="evenodd" clip-rule="evenodd" d="M276.14 310C274.815 310 273.494 310.027 272.171 310.095C271.162 310.148 269.621 309.939 268.768 310.568C267.881 311.221 267.942 312.557 268.081 313.501C268.813 318.493 270.6 322.919 274.339 326.456C280.096 331.901 286.695 334.668 294.504 335.9C299.99 336.766 305.054 335.564 309.092 331.663C312.043 337.139 314.281 343.199 315.404 349.315C315.958 352.333 316.127 355.315 316.03 358.388C315.967 360.356 315.859 362.32 315.648 364.279C315.556 365.13 315.122 366.418 315.455 367.223C315.846 368.167 317.165 368.259 317.757 367.453C318.25 366.783 318.16 365.466 318.261 364.673C318.429 363.355 318.584 362.036 318.695 360.712C318.876 358.569 319.009 356.42 319 354.268C318.977 349.435 317.902 344.583 316.432 339.995C313.612 331.192 309.037 323.369 301.921 317.231C297.545 313.457 292.537 311.929 286.856 311.108C283.318 310.597 279.723 310 276.14 310" fill="#89C5CC" blush:i="0.0.0.5.0.0"/><path id="Fill 18" fill-rule="evenodd" clip-rule="evenodd" d="M296.571 345C282.272 345 272.642 356.524 268.089 368.502C266.372 373.016 265.97 377.974 265.308 382.714C265.096 384.236 265.175 386.554 264.557 387.909C264.333 388.401 263.819 388.577 264.065 389.247C264.214 389.652 264.505 389.901 264.944 389.981C265.843 390.147 267.115 389.167 267.886 388.781C274.282 385.573 278.484 380.613 281.912 374.545C284.038 370.784 286.194 366.879 287.456 362.75C288.227 360.227 288.676 357.571 288.94 354.954C289.044 353.923 289.144 352.868 289.138 351.832C289.132 350.803 288.653 350.259 288.309 349.364C293.08 347.558 298.466 347.066 303.299 348.937C307.769 350.668 311.482 354.013 313.561 358.216C314.101 359.308 314.518 360.46 314.821 361.636C315.02 362.406 315.029 363.404 315.398 364.1C316.29 365.788 318.168 364.66 317.988 363.089C317.485 358.708 314.979 354.309 311.775 351.263C307.734 347.421 302.258 345 296.571 345" fill="#89C5CC" blush:i="0.0.0.5.0.1"/></g><rect id="Container" x="312" y="118" width="143" height="271" rx="8" fill="#C7D1D9" blush:i="0.0.0.5.1"/><circle id="Touch" cx="383" cy="358" r="15" fill="white" blush:i="0.0.0.5.2"/><g id="Camera" blush:i="0.0.0.5.3"><circle id="Lens" cx="370" cy="134" r="2" fill="white" blush:i="0.0.0.5.3.0"/><rect id="Sensor" x="377" y="132" width="21" height="4" rx="2" fill="white" blush:i="0.0.0.5.3.1"/></g><g id="Rows" clip-path="url(#clip1_410_5451ea72e470-6635-4bc5-9ee3-de01a9abf139)" blush:i="0.0.0.5.4"><g id="Row" clip-path="url(#clip2_410_5451ea72e470-6635-4bc5-9ee3-de01a9abf139)" blush:i="0.0.0.5.4.0"><rect id="Container_2" x="328" y="146" width="110" height="48" rx="4" fill="white" blush:i="0.0.0.5.4.0.0"/><g id="Text Stuff" clip-path="url(#clip3_410_5451ea72e470-6635-4bc5-9ee3-de01a9abf139)" blush:i="0.0.0.5.4.0.1"><rect id="Label" x="337" y="160.4" width="52" height="7.2" rx="3" fill="#C7D1D9" blush:i="0.0.0.5.4.0.1.0"/><rect id="Label_2" x="337" y="172.4" width="34.9041" height="7.2" rx="3" fill="#C7D1D9" blush:i="0.0.0.5.4.0.1.1"/></g><g id="Check" blush:i="0.0.0.5.4.0.2"><circle id="Background" cx="426.244" cy="170" r="7" fill="#C7D1D9" blush:i="0.0.0.5.4.0.2.0"/><circle id="Indicator" cx="426.244" cy="170" r="3" fill="#F2F2F2" blush:i="0.0.0.5.4.0.2.1"/></g></g><g id="Row_2" clip-path="url(#clip4_410_5451ea72e470-6635-4bc5-9ee3-de01a9abf139)" blush:i="0.0.0.5.4.1"><rect id="Background_2" x="328" y="202" width="110" height="37" rx="4" fill="white" blush:i="0.0.0.5.4.1.0"/><g id="Text" clip-path="url(#clip5_410_5451ea72e470-6635-4bc5-9ee3-de01a9abf139)" blush:i="0.0.0.5.4.1.1"><rect id="Name" x="367" y="213.1" width="52" height="5.55" rx="2.775" fill="#C7D1D9" blush:i="0.0.0.5.4.1.1.0"/><rect id="Name_2" x="367" y="222.35" width="34.9041" height="5.55" rx="2.775" fill="#C7D1D9" blush:i="0.0.0.5.4.1.1.1"/></g><circle id="Avatar" cx="349" cy="220.5" r="12" fill="#C5CFD6" blush:i="0.0.0.5.4.1.2"/></g><g id="Row_3" clip-path="url(#clip6_410_5451ea72e470-6635-4bc5-9ee3-de01a9abf139)" blush:i="0.0.0.5.4.2"><rect id="Container_3" x="328" y="247" width="110" height="37" rx="4" fill="white" blush:i="0.0.0.5.4.2.0"/><g id="Text Stuff_2" clip-path="url(#clip7_410_5451ea72e470-6635-4bc5-9ee3-de01a9abf139)" blush:i="0.0.0.5.4.2.1"><rect id="Label_3" x="337" y="258.1" width="52" height="5.55" rx="2.775" fill="#C7D1D9" blush:i="0.0.0.5.4.2.1.0"/><rect id="Label_4" x="337" y="267.35" width="34.9041" height="5.55" rx="2.775" fill="#C7D1D9" blush:i="0.0.0.5.4.2.1.1"/></g><g id="Check_2" blush:i="0.0.0.5.4.2.2"><circle id="Background_3" cx="426.244" cy="265.5" r="7" fill="#C7D1D9" blush:i="0.0.0.5.4.2.2.0"/><circle id="Indicator_2" cx="426.244" cy="265.5" r="3" fill="#F2F2F2" blush:i="0.0.0.5.4.2.2.1"/></g></g><g id="Row_4" clip-path="url(#clip8_410_5451ea72e470-6635-4bc5-9ee3-de01a9abf139)" blush:i="0.0.0.5.4.3"><rect id="Background_4" x="328" y="292" width="110" height="37" rx="4" fill="white" blush:i="0.0.0.5.4.3.0"/><g id="Text_2" clip-path="url(#clip9_410_5451ea72e470-6635-4bc5-9ee3-de01a9abf139)" blush:i="0.0.0.5.4.3.1"><rect id="Name_3" x="367" y="303.1" width="52" height="5.55" rx="2.775" fill="#C7D1D9" blush:i="0.0.0.5.4.3.1.0"/><rect id="Name_4" x="367" y="312.35" width="34.9041" height="5.55" rx="2.775" fill="#C7D1D9" blush:i="0.0.0.5.4.3.1.1"/></g><circle id="Avatar_2" cx="349" cy="310.5" r="12" fill="#C5CFD6" blush:i="0.0.0.5.4.3.2"/></g></g></g><g id="Web" clip-path="url(#clip10_410_5451ea72e470-6635-4bc5-9ee3-de01a9abf139)" blush:i="0.0.0.6"><rect id="Container_4" x="426" y="164" width="302" height="311" rx="8" fill="#F2F2F2" blush:i="0.0.0.6.0"/><rect id="Background_5" x="651" y="203" width="63" height="73" rx="8" fill="white" blush:i="0.0.0.6.1"/><g id="Profile Info" blush:i="0.0.0.6.2"><ellipse id="Avatar_3" cx="682.5" cy="230.462" rx="14.4" ry="14.4615" fill="#C7D1D9" blush:i="0.0.0.6.2.0"/><rect id="Name_5" x="660" y="248.539" width="45" height="5.42308" rx="2.71154" fill="#C7D1D9" blush:i="0.0.0.6.2.1"/><rect id="Name_6" x="667.2" y="257.577" width="30.6" height="5.42308" rx="2.71154" fill="#C7D1D9" blush:i="0.0.0.6.2.2"/></g><path id="Header" d="M426 172C426 167.582 429.582 164 434 164H720C724.418 164 728 167.582 728 172V188H426V172Z" fill="#C5CFD6" blush:i="0.0.0.6.3"/><g id="Buttons" blush:i="0.0.0.6.4"><circle id="buttons" cx="439" cy="178" r="4" fill="#F2F2F2" blush:i="0.0.0.6.4.0"/><circle id="buttons_2" cx="451" cy="178" r="4" fill="#F2F2F2" blush:i="0.0.0.6.4.1"/><circle id="buttons_3" cx="463" cy="178" r="4" fill="#F2F2F2" blush:i="0.0.0.6.4.2"/></g><g id="Components" clip-path="url(#clip11_410_5451ea72e470-6635-4bc5-9ee3-de01a9abf139)" blush:i="0.0.0.6.5"><rect id="Background_6" x="651" y="283" width="63" height="174" rx="8" fill="white" blush:i="0.0.0.6.5.0"/><g id="Rows_2" clip-path="url(#clip12_410_5451ea72e470-6635-4bc5-9ee3-de01a9abf139)" blush:i="0.0.0.6.5.1"><rect id="Data" x="669" y="301" width="27" height="23" rx="4" fill="#C7D1D9" blush:i="0.0.0.6.5.1.0"/><rect id="Data_2" x="669" y="332" width="27" height="22" rx="4" fill="#AFB9C5" blush:i="0.0.0.6.5.1.1"/><rect id="Data_3" x="669" y="362" width="27" height="22" rx="4" fill="#C7D1D9" blush:i="0.0.0.6.5.1.2"/><rect id="Data_4" x="669" y="422" width="27" height="22" rx="4" fill="#C7D1D9" blush:i="0.0.0.6.5.1.3"/><rect id="Data_5" x="669" y="392" width="27" height="22" rx="4" fill="#C5CFD6" blush:i="0.0.0.6.5.1.4"/></g></g><g id="Rows_3" clip-path="url(#clip13_410_5451ea72e470-6635-4bc5-9ee3-de01a9abf139)" blush:i="0.0.0.6.6"><g id="Row_5" clip-path="url(#clip14_410_5451ea72e470-6635-4bc5-9ee3-de01a9abf139)" blush:i="0.0.0.6.6.0"><rect id="Container_5" x="442" y="208" width="192" height="42" rx="4" fill="white" blush:i="0.0.0.6.6.0.0"/><g id="Text Stuff_3" clip-path="url(#clip15_410_5451ea72e470-6635-4bc5-9ee3-de01a9abf139)" blush:i="0.0.0.6.6.0.1"><rect id="Label_5" x="451" y="220.6" width="134" height="6.3" rx="3" fill="#C7D1D9" blush:i="0.0.0.6.6.0.1.0"/><rect id="Label_6" x="451" y="231.1" width="89.9452" height="6.3" rx="3" fill="#C7D1D9" blush:i="0.0.0.6.6.0.1.1"/></g><g id="Check_3" blush:i="0.0.0.6.6.0.2"><circle id="Background_7" cx="613.481" cy="229" r="7" fill="#C7D1D9" blush:i="0.0.0.6.6.0.2.0"/><circle id="Indicator_3" cx="613.481" cy="229" r="3" fill="#F2F2F2" blush:i="0.0.0.6.6.0.2.1"/></g></g><g id="Row_6" clip-path="url(#clip16_410_5451ea72e470-6635-4bc5-9ee3-de01a9abf139)" blush:i="0.0.0.6.6.1"><rect id="Container_6" x="442" y="258" width="192" height="34" rx="4" fill="white" blush:i="0.0.0.6.6.1.0"/><g id="Text Stuff_4" clip-path="url(#clip17_410_5451ea72e470-6635-4bc5-9ee3-de01a9abf139)" blush:i="0.0.0.6.6.1.1"><rect id="Label_7" x="451" y="268.2" width="134" height="5.1" rx="2.55" fill="#C7D1D9" blush:i="0.0.0.6.6.1.1.0"/><rect id="Label_8" x="451" y="276.7" width="89.9452" height="5.1" rx="2.55" fill="#C7D1D9" blush:i="0.0.0.6.6.1.1.1"/></g><g id="Check_4" blush:i="0.0.0.6.6.1.2"><circle id="Background_8" cx="613.481" cy="275" r="7" fill="#C7D1D9" blush:i="0.0.0.6.6.1.2.0"/><circle id="Indicator_4" cx="613.481" cy="275" r="3" fill="#F2F2F2" blush:i="0.0.0.6.6.1.2.1"/></g></g><g id="Row_7" clip-path="url(#clip18_410_5451ea72e470-6635-4bc5-9ee3-de01a9abf139)" blush:i="0.0.0.6.6.2"><rect id="Container_7" x="442" y="300" width="192" height="34" rx="4" fill="white" blush:i="0.0.0.6.6.2.0"/><g id="Text Stuff_5" clip-path="url(#clip19_410_5451ea72e470-6635-4bc5-9ee3-de01a9abf139)" blush:i="0.0.0.6.6.2.1"><rect id="Label_9" x="451" y="310.2" width="134" height="5.1" rx="2.55" fill="#C7D1D9" blush:i="0.0.0.6.6.2.1.0"/><rect id="Label_10" x="451" y="318.7" width="89.9452" height="5.1" rx="2.55" fill="#C7D1D9" blush:i="0.0.0.6.6.2.1.1"/></g><g id="Check_5" blush:i="0.0.0.6.6.2.2"><circle id="Background_9" cx="613.481" cy="317" r="7" fill="#C7D1D9" blush:i="0.0.0.6.6.2.2.0"/><circle id="Indicator_5" cx="613.481" cy="317" r="3" fill="#AFB9C5" blush:i="0.0.0.6.6.2.2.1"/></g></g><g id="Row_8" clip-path="url(#clip20_410_5451ea72e470-6635-4bc5-9ee3-de01a9abf139)" blush:i="0.0.0.6.6.3"><rect id="Container_8" x="442" y="426" width="192" height="34" rx="4" fill="white" blush:i="0.0.0.6.6.3.0"/><g id="Text Stuff_6" clip-path="url(#clip21_410_5451ea72e470-6635-4bc5-9ee3-de01a9abf139)" blush:i="0.0.0.6.6.3.1"><rect id="Label_11" x="451" y="436.2" width="134" height="5.1" rx="2.55" fill="#C7D1D9" blush:i="0.0.0.6.6.3.1.0"/><rect id="Label_12" x="451" y="444.7" width="89.9452" height="5.1" rx="2.55" fill="#C7D1D9" blush:i="0.0.0.6.6.3.1.1"/></g><g id="Check_6" blush:i="0.0.0.6.6.3.2"><circle id="Background_10" cx="613.481" cy="443" r="7" fill="#C7D1D9" blush:i="0.0.0.6.6.3.2.0"/><circle id="Indicator_6" cx="613.481" cy="443" r="3" fill="#F2F2F2" blush:i="0.0.0.6.6.3.2.1"/></g></g><g id="Row_9" clip-path="url(#clip22_410_5451ea72e470-6635-4bc5-9ee3-de01a9abf139)" blush:i="0.0.0.6.6.4"><rect id="Container_9" x="442" y="384" width="192" height="34" rx="4" fill="white" blush:i="0.0.0.6.6.4.0"/><g id="Text Stuff_7" clip-path="url(#clip23_410_5451ea72e470-6635-4bc5-9ee3-de01a9abf139)" blush:i="0.0.0.6.6.4.1"><rect id="Label_13" x="451" y="394.2" width="134" height="5.1" rx="2.55" fill="#C7D1D9" blush:i="0.0.0.6.6.4.1.0"/><rect id="Label_14" x="451" y="402.7" width="89.9452" height="5.1" rx="2.55" fill="#C7D1D9" blush:i="0.0.0.6.6.4.1.1"/></g><g id="Check_7" blush:i="0.0.0.6.6.4.2"><circle id="Background_11" cx="613.481" cy="401" r="7" fill="#C7D1D9" blush:i="0.0.0.6.6.4.2.0"/><circle id="Indicator_7" cx="613.481" cy="401" r="3" fill="#F2F2F2" blush:i="0.0.0.6.6.4.2.1"/></g></g><g id="Row_10" clip-path="url(#clip24_410_5451ea72e470-6635-4bc5-9ee3-de01a9abf139)" blush:i="0.0.0.6.6.5"><rect id="Container_10" x="442" y="342" width="192" height="34" rx="4" fill="white" blush:i="0.0.0.6.6.5.0"/><g id="Text Stuff_8" clip-path="url(#clip25_410_5451ea72e470-6635-4bc5-9ee3-de01a9abf139)" blush:i="0.0.0.6.6.5.1"><rect id="Label_15" x="451" y="352.2" width="134" height="5.1" rx="2.55" fill="#C7D1D9" blush:i="0.0.0.6.6.5.1.0"/><rect id="Label_16" x="451" y="360.7" width="89.9452" height="5.1" rx="2.55" fill="#C7D1D9" blush:i="0.0.0.6.6.5.1.1"/></g><g id="Check_8" blush:i="0.0.0.6.6.5.2"><circle id="Background_12" cx="613.481" cy="359" r="7" fill="#C7D1D9" blush:i="0.0.0.6.6.5.2.0"/><circle id="Indicator_8" cx="613.481" cy="359" r="3" fill="#F2F2F2" blush:i="0.0.0.6.6.5.2.1"/></g></g></g></g><g id="Plant" blush:i="0.0.0.7"><path id="Fill 19" fill-rule="evenodd" clip-rule="evenodd" d="M162.915 395.219C179.66 423.452 199.162 450.79 210.874 481.659C210.402 478.02 209.902 474.385 209.342 470.756C206.37 451.516 202.677 432.416 198.795 413.339C196.819 403.626 194.729 393.949 192.585 384.272C191.431 379.075 190.292 373.874 189.116 368.682C188.831 367.423 188.586 365.226 188.229 363C199.611 400.539 210.587 438.105 218.616 476.546C219.669 481.591 220.566 486.627 221.301 491.655C221.552 490.508 221.799 489.361 222.07 488.217C225.318 474.507 230.191 460.905 235.994 448.086C238.767 441.955 241.953 435.959 245.705 430.371C248.044 426.888 253.561 422.748 255.694 419.181C244.024 440.694 239.81 467.611 233.071 491C231.427 496.707 229.772 502.405 228.15 508.113C238.312 487.631 254.079 470.803 276 463.51C249.465 481.131 233.549 511.989 222.824 543.549C222.789 543.923 222.747 544.298 222.711 544.673C225.867 538.653 229.842 533.208 235.23 529.394C246.762 521.23 259.554 523.609 270.741 530.612C261.961 525.003 246.094 530.11 238.707 535.811C233.419 539.892 228.9 545.366 224.975 550.708C224.035 551.988 222.752 553.482 221.396 555.076C219.496 567.473 216.399 579.785 212.015 592C212.739 588.494 212.215 582.887 212.416 580.273C212.438 579.991 212.456 579.707 212.477 579.425C211.811 582.1 211.167 584.744 210.547 587.345C211.779 582.381 212.449 577.199 212.972 571.964C213.107 569.714 213.238 567.464 213.377 565.214C213.333 560.944 213.158 556.657 212.862 552.363C211.812 548.19 210.637 544.254 209.668 540.981C206.172 529.17 201.046 517.854 194.736 507.298C188.98 497.665 182.089 488.939 174.134 481.047C169.846 476.794 165.358 472.744 160.933 468.637C159.333 467.152 156.473 463.502 154 461.599C172.013 471.58 190.554 482.378 203.695 498.459C202.154 492.514 200.481 486.652 198.711 480.908C189.731 451.764 178.392 421.56 162.915 395.219Z" fill="#C7D1D9" blush:i="0.0.0.7.0"/><ellipse id="Base" cx="218" cy="584.5" rx="37" ry="29.5" fill="#C5CFD6" blush:i="0.0.0.7.1"/></g><g id="Graph" blush:i="0.0.0.8"><rect id="Value" x="807" y="133" width="5" height="22" rx="2.5" fill="#C7D1D9" blush:i="0.0.0.8.0"/><rect id="Value_2" x="820" y="118" width="5" height="37" rx="2.5" fill="#C7D1D9" blush:i="0.0.0.8.1"/><rect id="Value_3" x="833" y="111" width="5" height="44" rx="2.5" fill="#C7D1D9" blush:i="0.0.0.8.2"/><rect id="Value_4" x="845" y="118" width="5" height="37" rx="2.5" fill="#C7D1D9" blush:i="0.0.0.8.3"/><rect id="Value_5" x="858" y="104" width="5" height="51" rx="2.5" fill="#C5CFD6" blush:i="0.0.0.8.4"/></g><g id="Pie Chart" blush:i="0.0.0.9"><path id="Value_6" fill-rule="evenodd" clip-rule="evenodd" d="M116 348.941C116 339.075 124.102 331 134 331V348.941L121.699 362C118.2 358.807 116 354.124 116 348.941Z" fill="#F2F2F2" blush:i="0.0.0.9.0"/><path id="Value_7" fill-rule="evenodd" clip-rule="evenodd" d="M133.585 348H152C152 352.699 150.058 357.102 146.988 360.301C143.612 363.8 138.804 366 133.585 366C128.778 366 124.377 364.102 121 361.101L133.585 348Z" fill="#AFB9C5" blush:i="0.0.0.9.1"/><path id="Value_8" fill-rule="evenodd" clip-rule="evenodd" d="M152 349C152 339.102 143.898 331 134 331V349H152ZM125 331L132.2 347.2L116 340C117.602 335.801 121.199 332.602 125 331Z" fill="#C5CFD6" blush:i="0.0.0.9.2"/></g><g id="Chart" blush:i="0.0.0.10"><path id="Value_9" fill-rule="evenodd" clip-rule="evenodd" d="M886.135 393.841C884.398 395.643 881.938 396.775 879.201 396.775C873.943 396.775 869.681 392.622 869.681 387.5C869.681 382.378 873.943 378.225 879.201 378.225V361C864.243 361 852 372.928 852 387.5C852 402.072 864.243 414 879.201 414C887.059 414 894.16 410.762 899 405.61L886.135 393.841Z" fill="#F2F2F2" blush:i="0.0.0.10.0"/><path id="Value_10" fill-rule="evenodd" clip-rule="evenodd" d="M879 361V378.55C884.219 378.55 888.45 382.781 888.45 388H906C906 373.153 893.847 361 879 361Z" fill="#AFB9C5" blush:i="0.0.0.10.1"/><path id="Value_11" fill-rule="evenodd" clip-rule="evenodd" d="M887.756 388C887.756 390.981 886.285 393.631 884 395.342L895.24 409C901.783 404.11 906 396.531 906 388H887.756Z" fill="#C5CFD6" blush:i="0.0.0.10.2"/></g><g id="Chart_2" blush:i="0.0.0.11"><path id="Value_12" fill-rule="evenodd" clip-rule="evenodd" d="M752.872 115.406C751.505 116.8 749.568 117.675 747.414 117.675C743.275 117.675 739.919 114.463 739.919 110.5C739.919 106.537 743.275 103.325 747.414 103.325V90C735.638 90 726 99.227 726 110.5C726 121.773 735.638 131 747.414 131C753.599 131 759.189 128.495 763 124.51L752.872 115.406Z" fill="#F2F2F2" blush:i="0.0.0.11.0"/><path id="Value_13" fill-rule="evenodd" clip-rule="evenodd" d="M747 90V103.65C751.059 103.65 754.35 106.941 754.35 111H768C768 99.4521 758.548 90 747 90Z" fill="#AFB9C5" blush:i="0.0.0.11.1"/><path id="Value_14" fill-rule="evenodd" clip-rule="evenodd" d="M754.731 111C754.731 113.271 753.662 115.29 752 116.594L760.175 127C764.933 123.275 768 117.5 768 111H754.731Z" fill="#C5CFD6" blush:i="0.0.0.11.2"/></g><g id="Image" blush:i="0.0.0.12"><path id="Fill 35" fill-rule="evenodd" clip-rule="evenodd" d="M192.007 112.986C192.003 112.996 191.999 113.006 191.993 113.018C191.999 113.008 192.007 112.968 192.007 112.986" fill="#C5CFD6" blush:i="0.0.0.12.0"/><path id="Fill 37" fill-rule="evenodd" clip-rule="evenodd" d="M191.998 113.001C191.998 113.003 191.996 113.007 191.996 113.011C191.996 113.001 192.014 112.971 191.998 113.001" fill="#C5CFD6" blush:i="0.0.0.12.1"/><path id="Fill 39" fill-rule="evenodd" clip-rule="evenodd" d="M192.067 112.832C192.053 112.872 192.035 112.91 192.019 112.95C192.027 112.93 192.035 112.914 192.043 112.894C191.835 113.414 191.967 113.076 192.067 112.832" fill="#C5CFD6" blush:i="0.0.0.12.2"/><path id="Fill 41" fill-rule="evenodd" clip-rule="evenodd" d="M192.022 112.953C192.014 112.971 192.006 112.991 191.998 113.009C191.94 113.121 192.022 112.953 192.022 112.953" fill="#C5CFD6" blush:i="0.0.0.12.3"/><path id="Fill 45" fill-rule="evenodd" clip-rule="evenodd" d="M191.999 113.002C191.999 113 191.999 113 192.001 112.998C191.999 113 191.999 113 191.999 113.002" fill="#C5CFD6" blush:i="0.0.0.12.4"/><path id="Fill 47" fill-rule="evenodd" clip-rule="evenodd" d="M191.99 113.016C191.978 113.04 192.046 112.924 191.99 113.016Z" fill="#C5CFD6" blush:i="0.0.0.12.5"/><path id="Fill 49" fill-rule="evenodd" clip-rule="evenodd" d="M191.998 113.002L192.002 112.998C192 113 192 113.002 191.998 113.002" fill="#C5CFD6" blush:i="0.0.0.12.6"/><rect id="Photo Background" x="149" y="66" width="86" height="57" rx="4" fill="#C7D1D9" blush:i="0.0.0.12.7"/><path id="Mountains" fill-rule="evenodd" clip-rule="evenodd" d="M181.2 82L156 123H206.4L181.2 82Z" fill="#AFB9C5" blush:i="0.0.0.12.8"/><path id="Mountains_2" fill-rule="evenodd" clip-rule="evenodd" d="M205.95 92.9333L183.9 123H228L205.95 92.9333Z" fill="#C5CFD6" blush:i="0.0.0.12.9"/><circle id="Sun" cx="216" cy="85" r="8" fill="white" blush:i="0.0.0.12.10"/></g><g id="Image_2" blush:i="0.0.0.13"><path id="Fill 35_2" fill-rule="evenodd" clip-rule="evenodd" d="M770.993 495.986C770.997 495.996 771.001 496.006 771.007 496.018C771.001 496.008 770.993 495.968 770.993 495.986" fill="#C5CFD6" blush:i="0.0.0.13.0"/><path id="Fill 37_2" fill-rule="evenodd" clip-rule="evenodd" d="M771.002 496.001C771.002 496.003 771.004 496.007 771.004 496.011C771.004 496.001 770.986 495.971 771.002 496.001" fill="#C5CFD6" blush:i="0.0.0.13.1"/><path id="Fill 39_2" fill-rule="evenodd" clip-rule="evenodd" d="M770.933 495.832C770.947 495.872 770.965 495.91 770.981 495.95C770.973 495.93 770.965 495.914 770.957 495.894C771.165 496.414 771.033 496.076 770.933 495.832" fill="#C5CFD6" blush:i="0.0.0.13.2"/><path id="Fill 41_2" fill-rule="evenodd" clip-rule="evenodd" d="M770.978 495.953C770.986 495.971 770.994 495.991 771.002 496.009C771.06 496.121 770.978 495.953 770.978 495.953" fill="#C5CFD6" blush:i="0.0.0.13.3"/><path id="Fill 45_2" fill-rule="evenodd" clip-rule="evenodd" d="M771.001 496.002C771.001 496 771.001 496 770.999 495.998C771.001 496 771.001 496 771.001 496.002" fill="#C5CFD6" blush:i="0.0.0.13.4"/><path id="Fill 47_2" fill-rule="evenodd" clip-rule="evenodd" d="M771.01 496.016C771.022 496.04 770.954 495.924 771.01 496.016Z" fill="#C5CFD6" blush:i="0.0.0.13.5"/><path id="Fill 49_2" fill-rule="evenodd" clip-rule="evenodd" d="M771.002 496.002L770.998 495.998C771 496 771 496.002 771.002 496.002" fill="#C5CFD6" blush:i="0.0.0.13.6"/><rect id="Photo Background_2" width="142" height="94" rx="4" transform="matrix(-1 0 0 1 842 419)" fill="#C7D1D9" blush:i="0.0.0.13.7"/><path id="Mountains_3" fill-rule="evenodd" clip-rule="evenodd" d="M789.274 446L830.329 513H748.219L789.274 446Z" fill="#AFB9C5" blush:i="0.0.0.13.8"/><path id="Mountains_4" fill-rule="evenodd" clip-rule="evenodd" d="M746.944 463.947L783.239 513H710.649L746.944 463.947Z" fill="#C5CFD6" blush:i="0.0.0.13.9"/><circle id="Sun_2" cx="13.5" cy="13.5" r="13.5" transform="matrix(-1 0 0 1 745 437)" fill="white" blush:i="0.0.0.13.10"/></g></g><defs blush:i="0.0.1"><clipPath id="clip0_410_5451ea72e470-6635-4bc5-9ee3-de01a9abf139" blush:i="0.0.1.0"><rect width="191" height="272" fill="white" transform="translate(264 118)" blush:i="0.0.1.0.0"/></clipPath><clipPath id="clip1_410_5451ea72e470-6635-4bc5-9ee3-de01a9abf139" blush:i="0.0.1.1"><rect width="110" height="183" fill="white" transform="translate(328 146)" blush:i="0.0.1.1.0"/></clipPath><clipPath id="clip2_410_5451ea72e470-6635-4bc5-9ee3-de01a9abf139" blush:i="0.0.1.2"><rect width="110" height="48" fill="white" transform="translate(328 146)" blush:i="0.0.1.2.0"/></clipPath><clipPath id="clip3_410_5451ea72e470-6635-4bc5-9ee3-de01a9abf139" blush:i="0.0.1.3"><rect width="52" height="19.2" fill="white" transform="translate(337 160.4)" blush:i="0.0.1.3.0"/></clipPath><clipPath id="clip4_410_5451ea72e470-6635-4bc5-9ee3-de01a9abf139" blush:i="0.0.1.4"><rect width="110" height="37" fill="white" transform="translate(328 202)" blush:i="0.0.1.4.0"/></clipPath><clipPath id="clip5_410_5451ea72e470-6635-4bc5-9ee3-de01a9abf139" blush:i="0.0.1.5"><rect width="52" height="14.8" fill="white" transform="translate(367 213.1)" blush:i="0.0.1.5.0"/></clipPath><clipPath id="clip6_410_5451ea72e470-6635-4bc5-9ee3-de01a9abf139" blush:i="0.0.1.6"><rect width="110" height="37" fill="white" transform="translate(328 247)" blush:i="0.0.1.6.0"/></clipPath><clipPath id="clip7_410_5451ea72e470-6635-4bc5-9ee3-de01a9abf139" blush:i="0.0.1.7"><rect width="52" height="14.8" fill="white" transform="translate(337 258.1)" blush:i="0.0.1.7.0"/></clipPath><clipPath id="clip8_410_5451ea72e470-6635-4bc5-9ee3-de01a9abf139" blush:i="0.0.1.8"><rect width="110" height="37" fill="white" transform="translate(328 292)" blush:i="0.0.1.8.0"/></clipPath><clipPath id="clip9_410_5451ea72e470-6635-4bc5-9ee3-de01a9abf139" blush:i="0.0.1.9"><rect width="52" height="14.8" fill="white" transform="translate(367 303.1)" blush:i="0.0.1.9.0"/></clipPath><clipPath id="clip10_410_5451ea72e470-6635-4bc5-9ee3-de01a9abf139" blush:i="0.0.1.10"><rect width="302" height="311" fill="white" transform="translate(426 164)" blush:i="0.0.1.10.0"/></clipPath><clipPath id="clip11_410_5451ea72e470-6635-4bc5-9ee3-de01a9abf139" blush:i="0.0.1.11"><rect width="63" height="174" fill="white" transform="translate(651 283)" blush:i="0.0.1.11.0"/></clipPath><clipPath id="clip12_410_5451ea72e470-6635-4bc5-9ee3-de01a9abf139" blush:i="0.0.1.12"><rect width="27" height="143" fill="white" transform="translate(669 301)" blush:i="0.0.1.12.0"/></clipPath><clipPath id="clip13_410_5451ea72e470-6635-4bc5-9ee3-de01a9abf139" blush:i="0.0.1.13"><rect width="192" height="252" fill="white" transform="translate(442 208)" blush:i="0.0.1.13.0"/></clipPath><clipPath id="clip14_410_5451ea72e470-6635-4bc5-9ee3-de01a9abf139" blush:i="0.0.1.14"><rect width="192" height="42" fill="white" transform="translate(442 208)" blush:i="0.0.1.14.0"/></clipPath><clipPath id="clip15_410_5451ea72e470-6635-4bc5-9ee3-de01a9abf139" blush:i="0.0.1.15"><rect width="134" height="16.8" fill="white" transform="translate(451 220.6)" blush:i="0.0.1.15.0"/></clipPath><clipPath id="clip16_410_5451ea72e470-6635-4bc5-9ee3-de01a9abf139" blush:i="0.0.1.16"><rect width="192" height="34" fill="white" transform="translate(442 258)" blush:i="0.0.1.16.0"/></clipPath><clipPath id="clip17_410_5451ea72e470-6635-4bc5-9ee3-de01a9abf139" blush:i="0.0.1.17"><rect width="134" height="13.6" fill="white" transform="translate(451 268.2)" blush:i="0.0.1.17.0"/></clipPath><clipPath id="clip18_410_5451ea72e470-6635-4bc5-9ee3-de01a9abf139" blush:i="0.0.1.18"><rect width="192" height="34" fill="white" transform="translate(442 300)" blush:i="0.0.1.18.0"/></clipPath><clipPath id="clip19_410_5451ea72e470-6635-4bc5-9ee3-de01a9abf139" blush:i="0.0.1.19"><rect width="134" height="13.6" fill="white" transform="translate(451 310.2)" blush:i="0.0.1.19.0"/></clipPath><clipPath id="clip20_410_5451ea72e470-6635-4bc5-9ee3-de01a9abf139" blush:i="0.0.1.20"><rect width="192" height="34" fill="white" transform="translate(442 426)" blush:i="0.0.1.20.0"/></clipPath><clipPath id="clip21_410_5451ea72e470-6635-4bc5-9ee3-de01a9abf139" blush:i="0.0.1.21"><rect width="134" height="13.6" fill="white" transform="translate(451 436.2)" blush:i="0.0.1.21.0"/></clipPath><clipPath id="clip22_410_5451ea72e470-6635-4bc5-9ee3-de01a9abf139" blush:i="0.0.1.22"><rect width="192" height="34" fill="white" transform="translate(442 384)" blush:i="0.0.1.22.0"/></clipPath><clipPath id="clip23_410_5451ea72e470-6635-4bc5-9ee3-de01a9abf139" blush:i="0.0.1.23"><rect width="134" height="13.6" fill="white" transform="translate(451 394.2)" blush:i="0.0.1.23.0"/></clipPath><clipPath id="clip24_410_5451ea72e470-6635-4bc5-9ee3-de01a9abf139" blush:i="0.0.1.24"><rect width="192" height="34" fill="white" transform="translate(442 342)" blush:i="0.0.1.24.0"/></clipPath><clipPath id="clip25_410_5451ea72e470-6635-4bc5-9ee3-de01a9abf139" blush:i="0.0.1.25"><rect width="134" height="13.6" fill="white" transform="translate(451 352.2)" blush:i="0.0.1.25.0"/></clipPath></defs></g><g id="Master/Pose/Standing" blush:has-customizable-colors="true" blush:component="Master/Pose/Standing" blush:width="300" blush:height="426" transform="matrix(-1 0 0 1 878 214) scale(1 1)" blush:i="0.1" blush:value="Standing" blush:viewBox="-1.2784090909090935 0 302.55681818181813 425.9999999999999"><g id="Master/Pose/Standing" blush:has-customizable-colors="true" blush:viewBox="-1.2784090909090935 0 302.55681818181813 425.9999999999999" blush:i="0.1.0"><g id="Head/Front" blush:component="Head/Front" blush:defaultValue="Afro" blush:width="136" blush:height="104" transform="translate(82 0) scale(1 1)" blush:i="0.1.0.0" blush:value="Caesar" blush:viewBox="51.68000000000001 28.8586387434555 44.87999999999997 75.54973821989529"><g id="Head/Front/Caesar" blush:viewBox="51.68000000000001 28.8586387434555 44.87999999999997 75.54973821989529" blush:i="0.1.0.0.0"><g id="Head" blush:i="0.1.0.0.0.0"><path id="SKIN" fill-rule="evenodd" clip-rule="evenodd" d="M73.9354 75.2443C80.411 79.1475 86.7736 81.0333 89.7603 80.2635C97.2496 78.333 97.9382 50.9351 92.1433 40.1339C86.3485 29.3328 56.5583 24.625 55.0568 46.0255C54.5356 53.4529 57.6544 60.0814 62.2623 65.4901L54 104H78L73.9354 75.2443Z" fill="#dcae92" blush:color="Skin-500" blush:i="0.1.0.0.0.0.0"/></g><path id="Combined Shape" fill-rule="evenodd" clip-rule="evenodd" d="M63 41C76.8493 41.0992 86.4854 40.5156 92 39C91.7486 34.3062 86.8691 29 74 29C59.682 29 52 37.3455 52 47C52 55.8205 57.6781 66.5628 62 67C63.1187 66.7553 64.0738 65.4091 65.0235 63.5535C63.245 62.7108 62 60.7653 62 58.5C62 55.4624 64.2386 53 67 53C68.0028 53 68.9367 53.3247 69.7194 53.8838C71.5356 50.9533 73.812 48.762 77 49L75 43L63 42V41Z" fill="#e8e1e1" blush:color="Hair-500" blush:i="0.1.0.0.0.1"/></g></g><g id="Lower Body/Standing" blush:component="Lower Body/Standing" blush:defaultValue="Jogging" blush:width="300" blush:height="239" transform="translate(0 187) scale(1 1)" blush:i="0.1.0.1" blush:value="Baggy Pants" blush:viewBox="16.5 -0.6005025125627981 250.50000000000006 240.2010050251256"><g id="Lower Body/Standing/Baggy Pants" blush:viewBox="16.5 -0.6005025125627981 250.50000000000006 240.2010050251256" blush:i="0.1.0.1.0"><path id="SKIN" fill-rule="evenodd" clip-rule="evenodd" d="M134 0L183.082 124.227L216.001 229.25H229L176.674 0L134 0Z" fill="#dcae92" blush:color="Skin-500" blush:i="0.1.0.1.0.0"/><path id="SKIN" fill-rule="evenodd" clip-rule="evenodd" d="M124.117 0C123.594 43.6542 115.972 102.427 114.754 105.149C113.536 107.87 30.6758 174.358 30.6758 174.358L39.629 183.939C39.629 183.939 137.397 126.934 141.921 119.331C146.445 111.728 161.174 41.7631 173 0H124.117Z" fill="#dcae92" blush:color="Skin-500" blush:i="0.1.0.1.0.1"/><g id="Left [Shoe]" blush:i="0.1.0.1.0.2"><path id="shoe" fill-rule="evenodd" clip-rule="evenodd" d="M32.116 172.564C31.7884 171.44 30.604 170.771 29.5042 171.173C27.4981 171.906 24.5641 173.092 23.2642 174.183C21.1921 175.922 17.7961 179.948 17.7961 179.948C19.8131 182.352 54.0505 223.154 54.0505 223.154C54.0505 223.154 61.0315 220.166 58.4307 216.165C55.8299 212.164 54.1738 209.464 54.1738 209.464L46.2757 181.87C46.1206 181.328 45.549 181.022 45.012 181.192L40.7975 182.529C40.7975 182.529 36.4116 180.485 34.6494 178.384C33.5766 177.106 32.665 174.448 32.116 172.564Z" fill="#E4E4E4" blush:i="0.1.0.1.0.2.0"/></g><g id="Right {Shoe]" blush:i="0.1.0.1.0.3"><path id="shoe_2" fill-rule="evenodd" clip-rule="evenodd" d="M213.45 223.284C212.378 222.813 211.104 223.29 210.705 224.391C209.977 226.398 209 229.409 209 231.106C209 233.811 209.901 239 209.901 239C213.039 239 266.303 239 266.303 239C266.303 239 268.502 231.732 263.765 231.152C259.028 230.573 255.895 230.106 255.895 230.106L229.68 218.419C229.165 218.189 228.563 218.43 228.348 218.951L226.663 223.039C226.663 223.039 222.278 225.085 219.537 225.085C217.868 225.085 215.246 224.074 213.45 223.284Z" fill="#E4E4E4" blush:i="0.1.0.1.0.3.0"/></g><path id="Pant" fill-rule="evenodd" clip-rule="evenodd" d="M167 218.433L228.804 211.725L179 0H127.644L167 218.433Z" fill="#191847" blush:color="Bottom-700" blush:i="0.1.0.1.0.4"/><path id="Pant" fill-rule="evenodd" clip-rule="evenodd" d="M43.46 158.9L84 206.886C84 206.886 148.05 136.932 158.683 115.596C169.315 94.26 177.799 0 177.799 0H115.478C115.478 0 110.844 82.9258 109.231 86.7848C107.617 90.6437 43.46 158.9 43.46 158.9Z" fill="#393f82" blush:color="Bottom-500" blush:i="0.1.0.1.0.5"/></g></g><g id="Upper Body" blush:component="Upper Body" blush:defaultValue="Jacket" blush:width="256" blush:height="187" transform="translate(22 82) scale(1 1)" blush:i="0.1.0.2" blush:value="Jacket" blush:viewBox="33.27999999999997 -0.6404109589041127 211.20000000000005 181.8767123287671"><g id="Upper Body/Jacket" blush:viewBox="33.27999999999997 -0.6404109589041127 211.20000000000005 181.8767123287671" blush:i="0.1.0.2.0"><path id="SKIN" fill-rule="evenodd" clip-rule="evenodd" d="M222.372 116.758L194.044 89.1225L184.636 105.402L214.093 122.77C221.479 134.405 225.817 139.432 227.107 137.852C228.195 136.519 227.696 135.058 227.237 133.713C226.879 132.665 226.546 131.687 227.004 130.894C228.051 129.082 233.965 130.119 239.535 131.344C245.106 132.568 243.817 129.832 242.633 128.404C237.368 124.155 230.615 120.273 222.372 116.758ZM55.398 156.908C58.3285 150.963 68.308 93.0199 68.308 93.0199L89.2054 93.1021C89.2054 93.1021 69.8506 155.583 68.308 159.406C66.3041 164.372 69.708 171.587 72.0162 176.48C72.3733 177.237 72.7041 177.938 72.9847 178.567C69.782 180 68.2435 178.268 66.6216 176.442C64.7896 174.379 62.8512 172.197 58.288 174.319C56.525 175.14 54.8568 176.109 53.2269 177.057C47.5969 180.329 42.4249 183.336 35.3891 178.994C34.2737 178.306 33.0514 175.715 36.0047 173.69C43.3624 168.645 53.9654 159.815 55.398 156.908Z" fill="#dcae92" blush:color="Skin-500" blush:i="0.1.0.2.0.0"/><path id="Coat Back" fill-rule="evenodd" clip-rule="evenodd" d="M127.695 5.33202L136.342 3.84886C151.23 41.0391 177.222 74.8311 214.318 105.225L186.286 139.281C149.194 96.0046 126.33 51.3548 127.695 5.33202Z" fill="#c21b15" blush:color="Top-700" blush:i="0.1.0.2.0.1"/><path id="Shirt" fill-rule="evenodd" clip-rule="evenodd" d="M90 114H167C167 114 140.241 48.9377 140.241 3.46073L117.014 0C98.7599 29.3584 93.6048 65.5046 90 114Z" fill="#C7D1D9" blush:i="0.1.0.2.0.2"/><path id="Coat Front" fill-rule="evenodd" clip-rule="evenodd" d="M55 147C63.4209 51.9959 116.504 0 116.504 0L116.522 0.0164189C116.525 0.010945 116.529 0.00547202 116.532 0H118.048C120.769 0.0937097 126.338 0.337673 126.338 0.337673L131.95 16.3769C132.841 45.7102 142.351 134.606 142.351 134.606H91.9499C92.0356 138.682 92.2255 142.815 92.5306 147H55Z" fill="#ff4133" blush:color="Top-500" blush:i="0.1.0.2.0.3"/><path id="Shade" fill-rule="evenodd" clip-rule="evenodd" d="M91.9584 135C91.5561 117.25 93.1308 100.584 95.7576 85.5019C97.1315 103.399 100.003 124.933 106 135H91.9584Z" fill="black" fill-opacity="0.1" blush:i="0.1.0.2.0.4"/><path id="Light" fill-rule="evenodd" clip-rule="evenodd" d="M103.111 104L128 92.4293V104H103.111Z" fill="white" fill-opacity="0.2" blush:i="0.1.0.2.0.5"/></g></g></g></g><g id="Master/Pose/Sitting" blush:has-customizable-colors="true" blush:component="Master/Pose/Sitting" blush:width="300" blush:height="426" transform="translate(378 214) scale(1 1)" blush:i="0.2" blush:value="Sitting" blush:viewBox="-46.02272727272725 72.42000000000002 302.5568181818182 428.13000000000005"><g id="Master/Pose/Sitting" blush:has-customizable-colors="true" blush:viewBox="-46.02272727272725 72.42000000000002 302.5568181818182 428.13000000000005" blush:i="0.2.0"><g id="Head/Front" blush:component="Head/Front" blush:defaultValue="Bun and Mullet" blush:width="136" blush:height="104" transform="translate(38 73) scale(1 1)" blush:i="0.2.0.0" blush:value="Short Beard" blush:viewBox="53.03999999999999 28.8586387434555 44.19999999999996 75.54973821989529"><g id="Head/Front/Short Beard" blush:viewBox="53.03999999999999 28.8586387434555 44.19999999999996 75.54973821989529" blush:i="0.2.0.0.0"><g id="Head" blush:i="0.2.0.0.0.0"><path id="SKIN" fill-rule="evenodd" clip-rule="evenodd" d="M73.9354 75.2443C80.411 79.1475 86.7736 81.0333 89.7603 80.2635C97.2496 78.333 97.9382 50.9351 92.1433 40.1339C86.3485 29.3328 56.5583 24.625 55.0568 46.0255C54.5356 53.4529 57.6544 60.0814 62.2623 65.4901L54 104H78L73.9354 75.2443Z" fill="#dcae92" blush:color="Skin-500" blush:i="0.2.0.0.0.0.0"/></g><path id="Hair" fill-rule="evenodd" clip-rule="evenodd" d="M71.7199 51.0426C71.4839 51.0144 71.2437 50.9999 71.0001 50.9999C67.6864 50.9999 65.0001 53.6862 65.0001 56.9999C65.0001 58.6821 65.6924 60.2026 66.8076 61.2921C65.4193 63.2517 63.8634 65.2988 62.0805 67.4111C55.3825 63.3926 49.4122 50.6289 55.9606 39.3282C57.7706 33.7921 62.8681 31.8351 67.7075 30.4621C71.6276 28.8223 75.697 28.6374 79.1322 29.6205C85.8661 30.198 91.8791 32.2514 93.5833 33.4708C93.5833 39.8461 92.348 41.7376 81.7969 41.5708C79.2043 42.94 77.2113 45.2978 75.1354 48.3888C75.1527 48.626 76.5501 67.5846 82.4259 67.5846C85.9827 67.5846 89.2152 66.2263 91.7912 65.1439C93.4976 64.4269 94.9159 63.8309 95.9497 63.8309C97.8409 63.8309 97.4187 66.1976 96.1651 67.9524C95.7677 68.5086 94.7795 69.0571 93.7132 69.6489C92.004 70.5976 90.094 71.6578 90.094 73.0399C90.094 74.3079 91.3641 74.3054 92.4692 74.3032C93.3203 74.3015 94.0735 74.3 94.0735 74.8791C94.0735 75.1563 94.0846 75.4642 94.0963 75.7907C94.1779 78.0577 94.2918 81.2209 90.9513 81.2209C87.0838 81.2209 75.9949 79.8115 74.0945 74.0714C72.4826 69.2025 71.8691 55.1856 71.7199 51.0426Z" fill="#2c1b18" blush:color="Hair-500" blush:i="0.2.0.0.0.1"/></g></g><g id="Lower Body/Sitting" blush:component="Lower Body/Sitting" blush:defaultValue="Skinny Jeans 1" blush:width="300" blush:height="239" transform="translate(-44 260) scale(1 1)" blush:i="0.2.0.1" blush:value="Sweat Pants" blush:viewBox="48 -0.6005025125627981 274.5 175.64698492462313"><g id="Lower Body/Sitting/Sweat Pants" blush:viewBox="48 -0.6005025125627981 274.5 175.64698492462313" blush:i="0.2.0.1.0"><g id="Seat" blush:i="0.2.0.1.0.0"><ellipse id="Ballsy Ball" cx="126" cy="100.5" rx="77" ry="73.5" fill="#C5CFD6" blush:i="0.2.0.1.0.0.0"/></g><path id="SKIN" fill-rule="evenodd" clip-rule="evenodd" d="M245.711 96.5801C249.43 109.608 258.697 134.302 271.509 162.66L283.685 159.107C273.033 93.8526 264.168 50.6508 259.09 37.5018C255.735 28.8143 230.353 29.8322 233.273 47.3128C234.498 54.6433 239.343 74.2726 245.711 96.5801ZM195.667 50.3613C175.812 54.4749 134.644 69.0168 122.888 73.6636C115.5 76.5839 120.263 86.488 126.566 85.6215C127.633 85.4748 131.41 85.0523 137.044 84.422C155.142 82.3973 192.412 78.2278 220.679 74.1596C235.563 72.0174 227.556 44.138 212.102 47.0883C206.903 48.0808 201.373 49.1792 195.667 50.3613Z" fill="#dcae92" blush:color="Skin-500" blush:i="0.2.0.1.0.1"/><path id="Leg Back" fill-rule="evenodd" clip-rule="evenodd" d="M259.869 30.1378C257.839 23.5136 165.562 0 165.562 0H158V7.04672L221.587 39.4163C221.503 40.4607 221.554 41.5648 221.759 42.729C221.3 66.7257 231.571 84.6527 241.739 102.402C248.389 114.008 254.994 125.539 258.528 138.641L281.889 135.156C281.209 133.416 280.133 125.568 278.661 114.839C274.952 87.7851 268.729 42.4086 260 30.4032C259.97 30.3613 259.939 30.3197 259.907 30.2783C259.896 30.2314 259.883 30.1846 259.869 30.1378Z" fill="#2a0752" blush:color="Bottom-700" blush:i="0.2.0.1.0.2"/><path id="Leg Front" fill-rule="evenodd" clip-rule="evenodd" d="M163.283 58.6405C157.465 57.4758 152.107 56.4364 147.523 55.6323C117.909 50.4381 109.274 34.5863 114.38 0H168.942C177.855 2.56032 224.174 21.9848 248.207 32.3163C264.113 39.1543 259.099 63.8045 250.091 70.2195C250.042 70.613 249.88 70.8804 249.591 71C215.44 85.1543 186.318 84.0982 167.617 83.4201C159.784 83.136 153.78 82.9183 150 83.9122L144.077 65.2284L163.283 58.6405Z" fill="#342a83" blush:color="Bottom-500" blush:i="0.2.0.1.0.3"/><g id="Left [shoe]" blush:i="0.2.0.1.0.4"><path id="shoe" fill-rule="evenodd" clip-rule="evenodd" d="M129.127 72.6947C129.081 71.5247 128.094 70.5893 126.93 70.7131C124.806 70.9388 121.672 71.3803 120.147 72.1242C117.716 73.3099 113.446 76.3949 113.446 76.3949C114.822 79.2152 138.171 127.088 138.171 127.088C138.171 127.088 145.668 125.878 144.112 121.367C142.557 116.855 141.603 113.835 141.603 113.835L140.615 85.1497C140.596 84.5867 140.115 84.1508 139.553 84.1861L135.14 84.4634C135.14 84.4634 131.379 81.4191 130.177 78.955C129.446 77.4549 129.204 74.6555 129.127 72.6947Z" fill="#E4E4E4" blush:i="0.2.0.1.0.4.0"/></g><g id="Right [shoe]" blush:i="0.2.0.1.0.5"><path id="shoe_2" fill-rule="evenodd" clip-rule="evenodd" d="M268.45 156.284C267.378 155.813 266.104 156.29 265.705 157.391C264.977 159.398 264 162.409 264 164.106C264 166.811 264.901 172 264.901 172C268.039 172 321.303 172 321.303 172C321.303 172 323.502 164.732 318.765 164.152C314.028 163.573 310.895 163.106 310.895 163.106L284.68 151.419C284.165 151.189 283.563 151.43 283.348 151.951L281.663 156.039C281.663 156.039 277.278 158.085 274.537 158.085C272.868 158.085 270.246 157.074 268.45 156.284Z" fill="#E4E4E4" blush:i="0.2.0.1.0.5.0"/></g></g></g><g id="Upper Body" blush:component="Upper Body" blush:defaultValue="Long Sleeve" blush:width="256" blush:height="187" transform="translate(-22 155) scale(1 1)" blush:i="0.2.0.2" blush:value="Pointing Forward" blush:viewBox="76.80000000000001 -0.6404109589041127 180.48000000000002 146.01369863013701"><g id="Upper Body/Pointing Forward" blush:viewBox="76.80000000000001 -0.6404109589041127 180.48000000000002 146.01369863013701" blush:i="0.2.0.2.0"><path id="SKIN" fill-rule="evenodd" clip-rule="evenodd" d="M193.348 23.6899L158.638 42.7003L171.456 56.4577L196.677 33.3653C209.963 29.7037 216.039 27.0251 214.904 25.3294C213.948 23.8997 212.405 23.9494 210.985 23.9951C209.878 24.0307 208.845 24.064 208.22 23.3937C206.794 21.8628 209.515 16.5104 212.315 11.5416C215.114 6.57269 212.121 7.00525 210.409 7.7199C204.807 11.5123 199.12 16.8356 193.348 23.6899ZM228.246 50.3643L213 58.7399L213.868 74.0403C213.868 74.0403 223.743 66.9131 232.238 64.5444C243.07 61.5241 247.453 59.2177 252.746 52.4731C255.578 48.8645 257.982 41.6102 255.286 39.2477C254.252 38.3414 250.399 40.4824 246.468 42.667C243.472 44.3319 240.43 46.022 238.556 46.4078C236.034 46.9272 236.329 43.6574 236.565 41.0446C236.734 39.1697 236.873 37.633 235.918 38.0773C231.455 38.1538 228.246 50.3643 228.246 50.3643Z" fill="#cccccc" blush:color="Skin-700" blush:i="0.2.0.2.0.0"/><g id="Group 3" blush:i="0.2.0.2.0.1"><path id="Mask" fill-rule="evenodd" clip-rule="evenodd" d="M141.734 38.4654C153.892 38.337 170.104 35.7692 187.403 24.7888L194.196 39.9387C182.264 51.7804 165.486 61.5097 150.816 61.0977C139.255 60.7731 133.347 46.7892 141.734 38.4654Z" fill="#c21b15" blush:color="Top-700" blush:i="0.2.0.2.0.1.0"/><mask id="mask0_410_5849f12fc37b-e2bd-4312-a182-d9076f6ed1df" style="mask-type:luminance" maskUnits="userSpaceOnUse" x="137" y="24" width="58" height="38" blush:i="0.2.0.2.0.1.1" fill="#ffffff"><path id="Mask" fill-rule="evenodd" clip-rule="evenodd" d="M141.734 38.4654C153.892 38.337 170.104 35.7692 187.403 24.7888L194.196 39.9387C182.264 51.7804 165.486 61.5097 150.816 61.0977C139.255 60.7731 133.347 46.7892 141.734 38.4654Z" fill="#ffffff" blush:i="0.2.0.2.0.1.1.0"/></mask><g mask="url(#mask0_410_5849f12fc37b-e2bd-4312-a182-d9076f6ed1df)" blush:i="0.2.0.2.0.1.2"/></g><g id="Group 27" blush:i="0.2.0.2.0.2"><path id="Mask" fill-rule="evenodd" clip-rule="evenodd" d="M108.945 142.259C97.3866 140.752 86.7664 139.367 80.4728 140.606C73.4113 117.673 79.2749 103.234 84.6879 89.9046C87.9502 81.871 91.0489 74.2405 91.0555 65.3966C91.0748 39.6422 111.754 0 114.797 0H115.67H139.783H142.544C143.784 15.9374 149.079 33.193 154.407 50.5596C155.652 54.6153 156.898 58.6769 158.095 62.7293C178.26 67.3065 223.036 51.3734 223.036 51.3734C223.036 51.3734 234.34 74.7586 233.487 84.7171C207.424 98.331 185.087 104.401 166.683 104.802C167.268 115.721 165.939 126.112 161.474 135.606C155.491 148.327 130.576 145.079 108.945 142.259Z" fill="#ff4133" blush:color="Top-500" blush:i="0.2.0.2.0.2.0"/><mask id="mask1_410_5849f12fc37b-e2bd-4312-a182-d9076f6ed1df" style="mask-type:luminance" maskUnits="userSpaceOnUse" x="77" y="0" width="157" height="145" blush:i="0.2.0.2.0.2.1" fill="#ffffff"><path id="Mask_2" fill-rule="evenodd" clip-rule="evenodd" d="M108.945 142.259C97.3866 140.752 86.7664 139.367 80.4728 140.606C73.4113 117.673 79.2749 103.234 84.6879 89.9046C87.9502 81.871 91.0489 74.2405 91.0555 65.3966C91.0748 39.6422 111.754 0 114.797 0H115.67H139.783H142.544C143.784 15.9374 149.079 33.193 154.407 50.5596C155.652 54.6153 156.898 58.6769 158.095 62.7293C178.26 67.3065 223.036 51.3734 223.036 51.3734C223.036 51.3734 234.34 74.7586 233.487 84.7171C207.424 98.331 185.087 104.401 166.683 104.802C167.268 115.721 165.939 126.112 161.474 135.606C155.491 148.327 130.576 145.079 108.945 142.259Z" fill="#ffffff" blush:i="0.2.0.2.0.2.1.0"/></mask><g mask="url(#mask1_410_5849f12fc37b-e2bd-4312-a182-d9076f6ed1df)" blush:i="0.2.0.2.0.2.2"/></g></g></g></g></g><g id="Master/Pose/Standing" blush:has-customizable-colors="true" blush:component="Master/Pose/Standing" blush:width="300" blush:height="426" transform="translate(170 214) scale(1 1)" blush:i="0.3" blush:value="Standing" blush:viewBox="-1.2784090909090935 0 302.55681818181813 425.9999999999999"><g id="Master/Pose/Standing" blush:has-customizable-colors="true" blush:viewBox="-1.2784090909090935 0 302.55681818181813 425.9999999999999" blush:i="0.3.0"><g id="Head/Front" blush:component="Head/Front" blush:defaultValue="Afro" blush:width="136" blush:height="104" transform="translate(82 0) scale(1 1)" blush:i="0.3.0.0" blush:value="Long" blush:viewBox="36.72 26.816753926701566 64.59999999999998 77.59162303664922"><g id="Head/Front/Long" blush:viewBox="36.72 26.816753926701566 64.59999999999998 77.59162303664922" blush:i="0.3.0.0.0"><path id="Hair Back" fill-rule="evenodd" clip-rule="evenodd" d="M72.5 27C60.6259 27 51 36.6259 51 48.5V69.5C51 80.5658 59.3599 89.679 70.1086 90.8685C70.1114 90.9197 70.1143 90.971 70.1173 91.0225H99.1173C103.701 86.5438 99.209 57.9923 95.762 45.2902C94.2125 34.9385 85.2833 27 74.5 27H72.5Z" fill="#4a312c" blush:color="Hair-500" blush:i="0.3.0.0.0.0"/><g id="Head" blush:i="0.3.0.0.0.1"><path id="SKIN" fill-rule="evenodd" clip-rule="evenodd" d="M73.9354 75.2443C80.411 79.1475 86.7736 81.0333 89.7603 80.2635C97.2496 78.333 97.9382 50.9351 92.1433 40.1339C86.3485 29.3328 56.5583 24.625 55.0568 46.0255C54.5356 53.4529 57.6544 60.0814 62.2623 65.4901L54 104H78L73.9354 75.2443Z" fill="#b28b67" blush:color="Skin-500" blush:i="0.3.0.0.0.1.0"/></g><path id="Hair Front" fill-rule="evenodd" clip-rule="evenodd" d="M51.8812 46.1504C52.578 45.4614 53.2522 44.7947 53.9211 44.1981L53.8889 43.4207C53.8889 43.4207 61.4214 28 73.0014 28C84.5711 28 88.23 33.3787 91.3403 37.9508L91.3487 37.9631C89.7218 43.5452 84.8187 45.8037 79.2736 48.3579C76.8866 49.4574 74.3806 50.6117 71.9657 52.1095C71.0199 51.341 69.8137 50.8804 68.5 50.8804C65.4624 50.8804 63 53.3428 63 56.3804C63 59.418 65.4624 61.8804 68.5 61.8804C68.5838 61.8804 68.6671 61.8785 68.75 61.8748C69.8557 73.7528 69.4127 87.3173 66.1173 90.5371H37.1173C36.2848 76.0731 40.0264 71.947 43.8498 67.7307C47.4474 63.7635 51.1173 59.7166 51.1173 46.9028C51.3754 46.6506 51.6298 46.3991 51.8812 46.1505L51.8812 46.1504Z" fill="#4a312c" blush:color="Hair-500" blush:i="0.3.0.0.0.2"/></g></g><g id="Lower Body/Standing" blush:component="Lower Body/Standing" blush:defaultValue="Jogging" blush:width="300" blush:height="239" transform="translate(0 187) scale(1 1)" blush:i="0.3.0.1" blush:value="Shorts" blush:viewBox="84 -0.6005025125627981 152.99999999999997 240.2010050251256"><g id="Lower Body/Standing/Shorts" blush:viewBox="84 -0.6005025125627981 152.99999999999997 240.2010050251256" blush:i="0.3.0.1.0"><path id="SKIN" fill-rule="evenodd" clip-rule="evenodd" d="M128 0L165.631 123.024L183.86 227.648H198.153L178.891 0H128Z" fill="#b28b67" blush:color="Skin-500" blush:i="0.3.0.1.0.0"/><path id="Shadow" fill-rule="evenodd" clip-rule="evenodd" d="M128 0L165.631 123.024L183.86 227.648H198.153L178.891 0H128Z" fill="black" fill-opacity="0.1" blush:i="0.3.0.1.0.1"/><path id="SKIN" fill-rule="evenodd" clip-rule="evenodd" d="M114.538 0C117.094 67.5469 114.086 102.389 113.514 108.526C112.942 114.663 105.108 154.455 86.5637 229.708L101.794 224.478C131.102 155.459 141.089 119.589 144.45 110.526C147.812 101.463 156.739 64.6208 171.233 0H114.538Z" fill="#b28b67" blush:color="Skin-500" blush:i="0.3.0.1.0.2"/><g id="Left [shoe]" blush:i="0.3.0.1.0.3"><path id="shoe" fill-rule="evenodd" clip-rule="evenodd" d="M89.4496 223.284C88.3779 222.813 87.1043 223.29 86.7051 224.391C85.977 226.398 85 229.409 85 231.106C85 233.811 85.9012 239 85.9012 239C89.0392 239 142.303 239 142.303 239C142.303 239 144.502 231.732 139.765 231.152C135.028 230.573 131.895 230.106 131.895 230.106L105.68 218.419C105.165 218.189 104.563 218.43 104.348 218.951L102.663 223.039C102.663 223.039 98.2782 225.085 95.5367 225.085C93.8677 225.085 91.2457 224.074 89.4496 223.284Z" fill="#E4E4E4" blush:i="0.3.0.1.0.3.0"/></g><g id="Right [shoe]" blush:i="0.3.0.1.0.4"><path id="shoe_2" fill-rule="evenodd" clip-rule="evenodd" d="M183.45 223.284C182.378 222.813 181.104 223.29 180.705 224.391C179.977 226.398 179 229.409 179 231.106C179 233.811 179.901 239 179.901 239C183.039 239 236.303 239 236.303 239C236.303 239 238.502 231.732 233.765 231.152C229.028 230.573 225.895 230.106 225.895 230.106L199.68 218.419C199.165 218.189 198.563 218.43 198.348 218.951L196.663 223.039C196.663 223.039 192.278 225.085 189.537 225.085C187.868 225.085 185.246 224.074 183.45 223.284Z" fill="#E4E4E4" blush:i="0.3.0.1.0.4.0"/></g><path id="Bottom" fill-rule="evenodd" clip-rule="evenodd" d="M123 0L139 62.6795H187.87L180.584 0H123Z" fill="#191847" blush:color="Bottom-700" blush:i="0.3.0.1.0.5"/><path id="Bottom" fill-rule="evenodd" clip-rule="evenodd" d="M114 0C106.103 23.6708 111 62.6795 111 62.6795H160.87L174.584 0L114 0Z" fill="#393f82" blush:color="Bottom-500" blush:i="0.3.0.1.0.6"/></g></g><g id="Upper Body" blush:component="Upper Body" blush:defaultValue="Jacket" blush:width="256" blush:height="187" transform="translate(22 82) scale(1 1)" blush:i="0.3.0.2" blush:value="Jacket 2" blush:viewBox="1.2800000000000011 -0.6404109589041127 254.71999999999994 167.7876712328767"><g id="Upper Body/Jacket 2" blush:viewBox="1.2800000000000011 -0.6404109589041127 254.71999999999994 167.7876712328767" blush:i="0.3.0.2.0"><path id="SKIN" fill-rule="evenodd" clip-rule="evenodd" d="M234.235 61.7042L198 77.6171L209.57 92.4393L236.707 71.6329C250.262 69.1432 256.549 67.0043 255.566 65.2163C254.738 63.7087 253.197 63.6237 251.778 63.5454C250.672 63.4844 249.64 63.4275 249.076 62.7053C247.789 61.056 250.966 55.9611 254.188 51.2552C257.41 46.5492 254.39 46.7192 252.623 47.282C246.711 50.5716 240.582 55.379 234.235 61.7042ZM72 86.0658L51.5083 82C37.6109 118.63 29.3256 138.702 26.6523 142.218C24.692 144.796 12.6026 151.437 4.41982 154.984C1.13535 156.407 1.84055 159.183 2.80388 160.071C8.88024 165.672 14.5292 163.709 20.6783 161.572C22.4585 160.953 24.2806 160.32 26.1672 159.851C31.0502 158.639 32.5361 161.15 33.9404 163.523C35.1837 165.624 36.363 167.616 39.7793 166.821C39.6239 166.151 39.433 165.4 39.227 164.589C37.8952 159.349 35.9312 151.62 38.845 147.13C40.3404 144.826 51.3921 124.471 72 86.0658Z" fill="#b28b67" blush:color="Skin-500" blush:i="0.3.0.2.0.0"/><path id="Coat Back" fill-rule="evenodd" clip-rule="evenodd" d="M127.695 5.33206L136.342 3.84889C155.176 22.119 162.862 66.0125 175.414 71.8225C187.281 77.3157 204.104 72 224.1 64.8225L230.223 78.5046C212.055 98.1606 173.349 114.767 157.66 105.287C132.576 90.1298 126.786 35.9937 127.695 5.33206Z" fill="#c5cfd6" blush:color="Top-700" blush:i="0.3.0.2.0.1"/><path id="Shirt" fill-rule="evenodd" clip-rule="evenodd" d="M90 114C90 114 142.008 114 166.511 114C170.008 114 169.349 108.952 168.843 106.404C163.011 77.0038 140.241 45.3115 140.241 3.46073L118.172 0C99.9175 29.3584 93.6048 65.5046 90 114Z" fill="#C7D1D9" blush:i="0.3.0.2.0.2"/><path id="Coat Front" fill-rule="evenodd" clip-rule="evenodd" d="M117 0H116.748C67.2466 30.5044 37.3306 77.7907 27 141.859L43.0374 145C53.6609 132.623 66.7714 112.368 82.3688 84.2332C77.5834 101.181 74.0896 118.563 73 135H141.872C155.205 101.305 125.486 0 125.486 0H120.731H117Z" fill="#f2f2f2" blush:color="Top-500" blush:i="0.3.0.2.0.3"/></g></g></g></g></g></svg>